<?xml version="1.0" encoding="UTF-8" standalone="no"?>
<svg
   xmlns:dc="http://purl.org/dc/elements/1.1/"
   xmlns:cc="http://creativecommons.org/ns#"
   xmlns:rdf="http://www.w3.org/1999/02/22-rdf-syntax-ns#"
   xmlns:svg="http://www.w3.org/2000/svg"
   xmlns="http://www.w3.org/2000/svg"
   id="svg46"
   version="1.1"
   style="overflow:visible"
   viewBox="-250 -250 500 500"
   height="2000px"
   width="2000px">
  <metadata
     id="metadata52">
    <rdf:RDF>
      <cc:Work
         rdf:about="">
        <dc:format>image/svg+xml</dc:format>
        <dc:type
           rdf:resource="http://purl.org/dc/dcmitype/StillImage" />
      </cc:Work>
    </rdf:RDF>
  </metadata>
  <defs
     id="defs50" />
  <rect
     id="rect2"
     fill-opacity="0"
     fill="rgb(0,0,0)"
     height="500"
     width="500"
     y="-250"
     x="-250" />
  <svg
     id="svg44"
     version="1.1"
     y="-250"
     x="-250"
     viewBox="-250 -250 500 500"
     height="500"
     width="500"
     style="overflow:visible">
    <g
       style="fill:#ffffff;stroke-linejoin:round"
       id="g42">
      <path
         style="fill:#ffffff;fill-opacity:1;stroke:none;stroke-linecap:butt;stroke-linejoin:round"
         id="path4"
         d="m -93.778,38.077999 c -3.54741,41.0625 -13.5295,81.539801 0,124.153001 -0.0437,0.0146 -0.0728,0.0291 -0.10198,0.0437 5.30333,1.63033 10.8689,3.1151 16.6968,4.46885 16.1781,-42.8879 3.87624,-85.777201 0,-128.665001 z m 170.989,0 c -3.03047,42.6361 -11.5391,84.835401 0,128.592001 5.74042,-1.3392 11.2914,-2.8094 16.5948,-4.43974 11.8451,-41.3842 15.3272,-82.768401 0,-124.153001 z m -126.858,0 c -5.8054,39.5486 -11.2036,89.096101 0,133.643001 15.5749,2.11069 32.2717,3.27522 49.6532,3.27522 17.0173,-0.0146 33.7869,-1.14997 49.6678,-3.30433 12.865,-43.6259 2.50596,-88.896701 0,-133.614001 z" />
      <path
         style="fill:#dddddd;fill-opacity:1;stroke:none;stroke-linecap:butt;stroke-linejoin:round"
         id="path6"
         d="M 49.675,38.077999 V 171.687 c 9.55358,-1.30332 18.7758,-2.98627 27.538,-5.01777 V 38.078228 H 49.675 Z" />
      <path
         style="fill:#dddddd;fill-opacity:1;stroke:none;stroke-linecap:butt;stroke-linejoin:round"
         id="path8"
         d="M 93.805999,38.077999 V 162.229 A 153.433,60.7706 0 0 0 153.4482,114.2289 V 38.077899 Z" />
      <path
         style="fill:#dddddd;fill-opacity:1;stroke:none;stroke-linecap:butt;stroke-linejoin:round"
         id="path10"
         d="M -49.646,38.077999 V 171.687 c -9.55358,-1.30332 -18.7758,-2.98627 -27.538,-5.01777 V 38.078228 h 27.538 z" />
      <path
         style="fill:#dddddd;fill-opacity:1;stroke:none;stroke-linecap:butt;stroke-linejoin:round"
         id="path12"
         d="M -93.778,38.077999 V 162.229 a 153.433,60.7706 0 0 1 -59.648,-48.0074 V 38.070599 h 59.6421 z" />
      <path
         style="fill:none;stroke:#444444;stroke-width:10;stroke-linecap:butt;stroke-linejoin:round;stroke-opacity:1"
         id="path14"
         d="M -153.4256,38.077999 V 114.2261 a 153.433,60.7706 0 0 0 153.433,60.7735 153.433,60.7706 0 0 0 153.433,-60.7589 V 38.092599 h -306.88 z" />
      <path
         style="fill:#ffffff;fill-opacity:1;stroke:none;stroke-linecap:butt;stroke-linejoin:round"
         id="path16"
         d="m -93.778,-38.067001 c -3.54741,41.0625 -13.5295,81.5398 0,124.153 -0.0437,0.0146 -0.0728,0.0291 -0.10198,0.0437 5.30333,1.63033 10.8689,3.11509 16.6968,4.46886 16.1781,-42.8879 3.87624,-85.7772 0,-128.665 z m 170.989,0 c -3.03047,42.636 -11.5391,84.8354 0,128.592 5.74042,-1.33919 11.2914,-2.80941 16.5948,-4.43973 11.8451,-41.3842 15.3272,-82.7684 0,-124.153 z m -126.858,0 c -5.8054,39.5486 -11.2036,89.0961 0,133.643 15.5749,2.1107 32.2717,3.27522 49.6532,3.27522 17.0173,-0.0146 33.7869,-1.14997 49.6678,-3.30434 12.865,-43.6259 2.50596,-88.8967 0,-133.614 z" />
      <path
         style="fill:#dddddd;fill-opacity:1;stroke:none;stroke-linecap:butt;stroke-linejoin:round"
         id="path18"
         d="m 49.675,-38.067001 v 133.609 c 9.55358,-1.30333 18.7758,-2.98628 27.538,-5.01779 V -38.066792 H 49.675 Z" />
      <path
         style="fill:#dddddd;fill-opacity:1;stroke:none;stroke-linecap:butt;stroke-linejoin:round"
         id="path20"
         d="m 93.805999,-38.067001 v 124.151 a 153.433,60.7706 0 0 0 59.642201,-48.0001 v -76.151 z" />
      <path
         style="fill:#dddddd;fill-opacity:1;stroke:none;stroke-linecap:butt;stroke-linejoin:round"
         id="path22"
         d="m -49.646,-38.067001 v 133.609 c -9.55358,-1.30333 -18.7758,-2.98628 -27.538,-5.01779 V -38.066792 h 27.538 z" />
      <path
         style="fill:#dddddd;fill-opacity:1;stroke:none;stroke-linecap:butt;stroke-linejoin:round"
         id="path24"
         d="m -93.778,-38.067001 v 124.151 a 153.433,60.7706 0 0 1 -59.648,-48.0074 v -76.151 h 59.6421 z" />
      <path
         style="fill:none;stroke:#444444;stroke-width:10;stroke-linecap:butt;stroke-linejoin:round;stroke-opacity:1"
         id="path26"
         d="m -153.4256,-38.067001 v 76.1481 a 153.433,60.7706 0 0 0 153.433,60.7735 153.433,60.7706 0 0 0 153.433,-60.7735 v -76.1481 h -306.88 z" />
      <path
         style="fill:#ffffff;fill-opacity:1;stroke:none;stroke-linecap:butt;stroke-linejoin:round"
         id="path28"
         d="m -93.778,-114.227 c -3.54741,41.0625 -13.5295,81.5398 0,124.153 -0.0437,0.0146 -0.0728,0.0291 -0.10198,0.0437 5.30333,1.63034 10.8689,3.1151 16.6968,4.46885 16.1781,-42.8879 3.87624,-85.7772 0,-128.665 z m 170.989,0 c -3.03047,42.6361 -11.5391,84.8354 0,128.592 5.74042,-1.3392 11.2914,-2.80941 16.5948,-4.43974 11.8451,-41.3842 15.3272,-82.7684 0,-124.153 z m -126.858,0 c -5.8054,39.5486 -11.2036,89.0961 0,133.643 15.5749,2.1107 32.2717,3.27522 49.6532,3.27522 17.0173,-0.0146 33.7869,-1.14996 49.6678,-3.30433 12.865,-43.6259 2.50596,-88.8967 0,-133.614 z" />
      <path
         style="fill:#dddddd;fill-opacity:1;stroke:none;stroke-linecap:butt;stroke-linejoin:round"
         id="path30"
         d="M 49.675,-114.227 V 19.382 c 9.55358,-1.30331 18.7758,-2.98627 27.538,-5.01777 v -128.591 H 49.675 Z" />
      <path
         style="fill:#dddddd;fill-opacity:1;stroke:none;stroke-linecap:butt;stroke-linejoin:round"
         id="path32"
         d="M 93.805999,-114.227 V 9.924 A 153.433,60.7706 0 0 0 153.4482,-38.0761 v -76.151 z" />
      <path
         style="fill:#dddddd;fill-opacity:1;stroke:none;stroke-linecap:butt;stroke-linejoin:round"
         id="path34"
         d="M -49.646,-114.227 V 19.382 c -9.55358,-1.30331 -18.7758,-2.98627 -27.538,-5.01777 v -128.591 h 27.538 z" />
      <path
         style="fill:#dddddd;fill-opacity:1;stroke:none;stroke-linecap:butt;stroke-linejoin:round"
         id="path36"
         d="M -93.778,-114.227 V 9.924 a 153.433,60.7706 0 0 1 -59.648,-48.0074 v -76.151 h 59.6421 z" />
      <path
         style="fill:none;stroke:#444444;stroke-width:10;stroke-linecap:butt;stroke-linejoin:round;stroke-opacity:1"
         id="path38"
         d="m -153.4256,-114.227 v 76.1481 a 153.433,60.7706 0 0 0 153.433,60.772 153.433,60.7706 0 0 0 153.433,-60.772 v -76.1481 h -306.88 z" />
      <path
         style="fill:#ffffff;fill-opacity:1;stroke:#444444;stroke-width:10;stroke-linecap:butt;stroke-linejoin:round;stroke-opacity:1"
         id="path40"
         d="M 153.439,-114.227 A 153.433,60.7706 0 0 1 0.006,-53.4535 153.433,60.7706 0 0 1 -153.427,-114.227 153.433,60.7706 0 0 1 0.006,-175.0005 153.433,60.7706 0 0 1 153.439,-114.227 Z" />
    </g>
  </svg>
</svg>
